<svg xmlns="http://www.w3.org/2000/svg" viewBox="0 0 24 24" role="img" aria-label="Slack">
  <rect width="24" height="24" rx="5" fill="#fff"/>
  <path fill="#E01E5A" d="M5.042 15.165a2.128 2.128 0 0 1-2.125-2.125c0-1.174.951-2.125 2.125-2.125h2.125v2.125a2.128 2.128 0 0 1-2.125 2.125zm1.063 0a2.128 2.128 0 0 1 2.125-2.125v-4.25a2.128 2.128 0 0 0-2.125-2.125 2.128 2.128 0 0 0-2.125 2.125v4.25h2.125z"/>
  <path fill="#36C5F0" d="M8.875 5.042a2.128 2.128 0 0 1 2.125-2.125c1.174 0 2.125.951 2.125 2.125v2.125H8.875V5.042zm0 1.063a2.128 2.128 0 0 1 2.125 2.125h4.25a2.128 2.128 0 0 0 2.125-2.125 2.128 2.128 0 0 0-2.125-2.125h-4.25a2.128 2.128 0 0 1-2.125 2.125z"/>
  <path fill="#2EB67D" d="M18.958 8.875a2.128 2.128 0 0 1 2.125 2.125c0 1.174-.951 2.125-2.125 2.125h-2.125V8.875a2.128 2.128 0 0 1 2.125-2.125zm-1.063 0a2.128 2.128 0 0 1-2.125 2.125v4.25a2.128 2.128 0 0 0 2.125 2.125 2.128 2.128 0 0 0 2.125-2.125v-4.25H17.895z"/>
  <path fill="#ECB22E" d="M15.125 18.958a2.128 2.128 0 0 1-2.125 2.125c-1.174 0-2.125-.951-2.125-2.125v-2.125h2.125a2.128 2.128 0 0 1 2.125 2.125zm0-1.063a2.128 2.128 0 0 1-2.125-2.125h-4.25a2.128 2.128 0 0 0-2.125 2.125 2.128 2.128 0 0 0 2.125 2.125h4.25a2.128 2.128 0 0 1 2.125-2.125z"/>
</svg>
