<svg xmlns="http://www.w3.org/2000/svg" viewBox="0 0 24 24" role="img" aria-label="Telegram">
  <circle cx="12" cy="12" r="12" fill="#26A5E4"/>
  <path fill="#fff" d="M5.432 11.873c3.498-1.524 5.83-2.529 6.998-3.014 3.332-1.386 4.025-1.627 4.476-1.635.099-.002.321.023.465.14.121.1.154.234.17.328.015.094.034.308.019.475-.172 1.814-.916 6.207-1.295 8.24-.16.855-.477 1.14-.784 1.168-.666.058-1.17-.44-1.815-.862-1.008-.658-1.579-1.067-2.557-1.71-1.132-.75-.398-1.164.247-1.84.169-.176 3.102-2.844 3.16-3.087.007-.03.014-.15-.056-.212-.07-.062-.173-.041-.248-.024-.106.024-1.793 1.14-5.061 3.345-.479.329-.913.489-1.302.481-.428-.009-1.252-.242-1.865-.442-.751-.244-1.349-.374-1.297-.789.027-.216.325-.437.893-.663z"/>
</svg>
